<svg width="1000" height="915" viewBox="0 0 1000 915" fill="none" xmlns="http://www.w3.org/2000/svg">
<path d="M486.84 548.53L367.71 697.24C358.87 708.28 366.73 724.64 380.87 724.64H619.13C633.27 724.64 641.13 708.28 632.29 697.24L513.16 548.53C506.41 540.11 493.59 540.11 486.84 548.53Z" fill="#82337E"/>
<path d="M311.52 249.67L194.06 453.13C192.5 455.84 192.5 459.17 194.06 461.87L311.53 665.33C314.9 671.16 323.31 671.16 326.67 665.33L444.14 461.87C445.7 459.16 445.7 455.83 444.14 453.13L326.67 249.67C323.3 243.84 314.89 243.84 311.52 249.67Z" fill="#023047"/>
<path d="M673.33 249.67L555.87 453.13C554.31 455.84 554.31 459.17 555.87 461.87L673.34 665.33C676.71 671.16 685.12 671.16 688.48 665.33L805.95 461.87C807.51 459.16 807.51 455.83 805.95 453.13L688.48 249.67C685.11 243.84 676.7 243.84 673.33 249.67Z" fill="#023047"/>
<path d="M513.16 366.47L632.29 217.76C641.13 206.72 633.27 190.36 619.13 190.36H380.87C366.73 190.36 358.87 206.72 367.71 217.76L486.84 366.47C493.59 374.89 506.41 374.89 513.16 366.47Z" fill="#82337E"/>
</svg>
